# xmcd
#
# Track frame offsets: 
#        150
#        19880
#        43990
#        80510
#        100605
#        120010
#        150720
#        176125
#        207915
#
# Disc length: 3375 seconds
#
# Revision: 0
# Processed by: cddbd v1.5.2PL0 Copyright (c) Steve Scherf et al.
# Submitted via: ExactAudioCopy v0.90b4
#
DISCID=6b0d2d09
DTITLE=Sonny Landreth - Waterfront Blues Festival, Portland Oregon
DYEAR=2004
DGENRE=Blues
TTITLE0=ZRider
TTITLE1=Native Stepson
TTITLE2=Broken Hearted Road
TTITLE3=Hell at Home
TTITLE4=Gemini Blues
TTITLE5=Ioana
TTITLE6=Blues Attack
TTITLE7=Pedal to the Metal
TTITLE8=Congo Square
EXTD=
EXTT0=
EXTT1=
EXTT2=
EXTT3=
EXTT4=
EXTT5=
EXTT6=
EXTT7=
EXTT8=
PLAYORDER=
